<?xml version="1.0" encoding="utf-8"?>
<!-- Generator: Adobe Illustrator 16.0.0, SVG Export Plug-In . SVG Version: 6.00 Build 0)  -->
<!DOCTYPE svg PUBLIC "-//W3C//DTD SVG 1.1//EN" "http://www.w3.org/Graphics/SVG/1.1/DTD/svg11.dtd">
<svg version="1.1" id="Ebene_1" xmlns="http://www.w3.org/2000/svg" xmlns:xlink="http://www.w3.org/1999/xlink" x="0px" y="0px"
	 width="1395.8852539px" height="384.1689453px" viewBox="0 0 1395.8852539 384.1689453"
	 enable-background="new 0 0 1395.8852539 384.1689453" xml:space="preserve">
<g>
	<g>
		<defs>
			<rect id="SVGID_1_" x="0.0014648" y="0.0039062" width="1395.8857422" height="384.1679688"/>
		</defs>
		<clipPath id="SVGID_2_">
			<use xlink:href="#SVGID_1_"  overflow="visible"/>
		</clipPath>
		<polygon clip-path="url(#SVGID_2_)" fill="#4B2464" points="240.3579102,383.1953125 319.6630859,0.0039062 
			381.0698242,0.0039062 301.7641602,383.1953125 240.3579102,383.1953125 		"/>
		<polygon clip-path="url(#SVGID_2_)" fill="#4B2464" points="81.5507812,384.171875 160.3344727,147.4277344 
			221.3432617,147.4277344 142.5537109,384.171875 81.5507812,384.171875 		"/>
		<polygon clip-path="url(#SVGID_2_)" fill="#774A83" points="142.5537109,384.171875 62.2114258,182.6542969 
			-0.0019531,182.6542969 80.3432617,384.171875 142.5537109,384.171875 		"/>
	</g>
	<polygon fill="#774A83" points="301.7641602,384.171875 222.0561523,147.4277344 160.3344727,147.4277344 240.0424805,384.171875 
		301.7641602,384.171875 	"/>
	<path fill="#4B2464" d="M468.4003906,248.2431641c-9.7333984-9.4326172-21.7963867-14.1523438-36.1889648-14.1523438
		c-14.4013672,0-26.3613281,4.6230469-35.8911133,13.8554688c-9.5332031,9.2333984-14.7958984,21.8876953-15.7875977,37.9755859
		h102.7602539C483.0927734,270.2402344,478.1245117,257.6767578,468.4003906,248.2431641L468.4003906,248.2431641z
		 M431.7626953,380.6347656c-23.4311523,0-42.4946289-7.7402344-57.1870117-23.2275391
		c-14.6958008-15.4931641-22.0390625-35.9433594-22.0390625-61.3613281c0-25.4111328,7.4462891-45.8125,22.3388672-61.2089844
		c14.8901367-15.3837891,34.1992188-23.0820312,57.9306641-23.0820312c23.7255859,0,42.7890625,7.2978516,57.1870117,21.8925781
		c14.3955078,14.5957031,21.5932617,33.2080078,21.5932617,55.8476562c0,5.7626953-0.4003906,11.1191406-1.1889648,16.0810547
		H380.2353516c0.7915039,16.2880859,5.9057617,29.1425781,15.3383789,38.5761719
		c9.4306641,9.4326172,21.4931641,14.1464844,36.1889648,14.1464844c11.1196289,0,20.5014648-2.4814453,28.1479492-7.4492188
		c7.640625-4.9560547,13.2548828-11.5078125,16.8276367-19.6552734h29.1914062
		c-5.1655273,14.2929688-14.0527344,26.1152344-26.6586914,35.4394531
		C466.6591797,375.9765625,450.8261719,380.6347656,431.7626953,380.6347656L431.7626953,380.6347656z"/>
	<g>
		<defs>
			<rect id="SVGID_3_" x="0.0014648" y="0.0039062" width="1395.8857422" height="384.1679688"/>
		</defs>
		<clipPath id="SVGID_4_">
			<use xlink:href="#SVGID_3_"  overflow="visible"/>
		</clipPath>
		<path clip-path="url(#SVGID_4_)" fill="none" stroke="#4B2464" stroke-miterlimit="10" d="M468.4003906,248.2431641
			c-9.7333984-9.4326172-21.7963867-14.1523438-36.1889648-14.1523438c-14.4013672,0-26.3613281,4.6230469-35.8911133,13.8554688
			c-9.5332031,9.2333984-14.7958984,21.8876953-15.7875977,37.9755859h102.7602539
			C483.0927734,270.2402344,478.1245117,257.6767578,468.4003906,248.2431641L468.4003906,248.2431641z M431.7626953,380.6347656
			c-23.4311523,0-42.4946289-7.7402344-57.1870117-23.2275391c-14.6958008-15.4931641-22.0390625-35.9433594-22.0390625-61.3613281
			c0-25.4111328,7.4462891-45.8125,22.3388672-61.2089844c14.8901367-15.3837891,34.1992188-23.0820312,57.9306641-23.0820312
			c23.7255859,0,42.7890625,7.2978516,57.1870117,21.8925781c14.3955078,14.5957031,21.5932617,33.2080078,21.5932617,55.8476562
			c0,5.7626953-0.4003906,11.1191406-1.1889648,16.0810547H380.2353516
			c0.7915039,16.2880859,5.9057617,29.1425781,15.3383789,38.5761719
			c9.4306641,9.4326172,21.4931641,14.1464844,36.1889648,14.1464844c11.1196289,0,20.5014648-2.4814453,28.1479492-7.4492188
			c7.640625-4.9560547,13.2548828-11.5078125,16.8276367-19.6552734h29.1914062
			c-5.1655273,14.2929688-14.0527344,26.1152344-26.6586914,35.4394531
			C466.6591797,375.9765625,450.8261719,380.6347656,431.7626953,380.6347656L431.7626953,380.6347656z"/>
	</g>
	<path fill="#4B2464" d="M622.2421875,357.4072266c15.1870117,0,28.1875-5.7089844,39.015625-17.125
		c10.8222656-11.4169922,16.2333984-26.4072266,16.2333984-44.9824219c0-18.5625-5.4111328-33.2070312-16.2333984-43.9257812
		c-10.828125-10.7255859-23.8286133-16.0878906-39.015625-16.0878906c-15.1958008,0-28.2021484,5.5625-39.0214844,16.6816406
		c-10.8251953,11.1201172-16.2333984,25.8613281-16.2333984,44.2304688c0,18.3681641,5.4082031,33.1582031,16.2333984,44.3808594
		C594.0400391,351.7958984,607.0463867,357.4072266,622.2421875,357.4072266L622.2421875,357.4072266z M627.453125,211.7548828
		c22.4301758,0,41.0478516,7.6982422,55.84375,23.0820312c14.7924805,15.3964844,22.1904297,35.5488281,22.1904297,60.4628906
		c0,24.9208984-7.4492188,45.3759766-22.3388672,61.3613281c-14.8959961,15.984375-33.4619141,23.9736328-55.6953125,23.9736328
		c-13.9038086,0-26.0639648-3.3183594-36.4887695-9.9785156c-10.4248047-6.6494141-18.4204102-15.3359375-23.9770508-26.0556641
		v33.359375h-27.1044922V157.5458984h27.1044922v89.6542969c5.5566406-10.5253906,13.5522461-19.0664062,23.9770508-25.6181641
		S613.5493164,211.7548828,627.453125,211.7548828L627.453125,211.7548828z"/>
	<g>
		<defs>
			<rect id="SVGID_5_" x="0.0014648" y="0.0039062" width="1395.8857422" height="384.1679688"/>
		</defs>
		<clipPath id="SVGID_6_">
			<use xlink:href="#SVGID_5_"  overflow="visible"/>
		</clipPath>
		<path clip-path="url(#SVGID_6_)" fill="none" stroke="#4B2464" stroke-miterlimit="10" d="M622.2421875,357.4072266
			c15.1870117,0,28.1875-5.7089844,39.015625-17.125c10.8222656-11.4169922,16.2333984-26.4072266,16.2333984-44.9824219
			c0-18.5625-5.4111328-33.2070312-16.2333984-43.9257812c-10.828125-10.7255859-23.8286133-16.0878906-39.015625-16.0878906
			c-15.1958008,0-28.2021484,5.5625-39.0214844,16.6816406c-10.8251953,11.1201172-16.2333984,25.8613281-16.2333984,44.2304688
			c0,18.3681641,5.4082031,33.1582031,16.2333984,44.3808594
			C594.0400391,351.7958984,607.0463867,357.4072266,622.2421875,357.4072266L622.2421875,357.4072266z M627.453125,211.7548828
			c22.4301758,0,41.0478516,7.6982422,55.84375,23.0820312c14.7924805,15.3964844,22.1904297,35.5488281,22.1904297,60.4628906
			c0,24.9208984-7.4492188,45.3759766-22.3388672,61.3613281c-14.8959961,15.984375-33.4619141,23.9736328-55.6953125,23.9736328
			c-13.9038086,0-26.0639648-3.3183594-36.4887695-9.9785156c-10.4248047-6.6494141-18.4204102-15.3359375-23.9770508-26.0556641
			v33.359375h-27.1044922V157.5458984h27.1044922v89.6542969c5.5566406-10.5253906,13.5522461-19.0664062,23.9770508-25.6181641
			S613.5493164,211.7548828,627.453125,211.7548828L627.453125,211.7548828z"/>
	</g>
	<path fill="#4B2464" d="M806.4555664,231.7128906h-44.9726562v107.8164062c0,8.1533203,1.5830078,13.8554688,4.7646484,17.1318359
		c3.1728516,3.2753906,8.8330078,4.9130859,16.9775391,4.9130859h23.2304688v16.3857422h-27.6992188
		c-25.4179688,0-38.1269531-12.8125-38.1269531-38.4306641V231.7128906h-22.6367188v-16.3789062h22.6367188v-40.8085938h20.8535156
		v40.8085938h44.9726562V231.7128906L806.4555664,231.7128906z"/>
	<path fill="#4B2464" d="M829.6899414,377.9599609V215.3339844h20.8457031v162.6259766H829.6899414L829.6899414,377.9599609z
		 M855.5981445,169.3144531c0,4.2705078-1.4404297,7.8925781-4.3183594,10.8710938
		c-2.8818359,2.9785156-6.4511719,4.4648438-10.7197266,4.4648438c-4.2734375,0-7.8955078-1.4863281-10.8701172-4.4648438
		c-2.9824219-2.9785156-4.46875-6.6005859-4.46875-10.8710938s1.4863281-7.8984375,4.46875-10.8710938
		c2.9746094-2.984375,6.5966797-4.4707031,10.8701172-4.4707031c4.2685547,0,7.8378906,1.4863281,10.7197266,4.4707031
		C854.1577148,161.4160156,855.5981445,165.0439453,855.5981445,169.3144531L855.5981445,169.3144531z"/>
	<path fill="#4B2464" d="M910.699707,215.3339844V241.84375c10.9121094-19.6611328,28.890625-29.4951172,53.9101562-29.4951172
		c12.9042969,0,24.4628906,3.0820312,34.6933594,9.2333984c10.2255859,6.1572266,17.8242188,15.1904297,22.7851562,27.1044922
		c5.5605469-11.5136719,13.5556641-20.4492188,23.9804688-26.8007812
		c10.4277344-6.3574219,22.3886719-9.5371094,35.8916016-9.5371094c18.0625,0,33.1591797,5.9150391,45.2724609,17.7265625
		c12.1054688,11.8164062,18.1699219,28.8447266,18.1699219,51.078125v96.8066406h-20.5566406v-92.9365234
		c0-17.8652344-4.3164062-31.4658203-12.9570312-40.8017578c-8.6328125-9.3300781-20.4501953-14.0009766-35.4394531-14.0009766
		c-14.9960938,0-26.8105469,4.6708984-35.4453125,14.0009766c-8.6328125,9.3359375-12.9589844,22.9365234-12.9589844,40.8017578
		v92.9365234h-20.5458984v-92.9365234c0-17.8652344-4.3193359-31.4658203-12.9580078-40.8017578
		c-8.6347656-9.3300781-20.4550781-14.0009766-35.4453125-14.0009766c-14.9960938,0-26.8066406,4.6708984-35.4453125,14.0009766
		c-8.6357422,9.3359375-12.9511719,22.9365234-12.9511719,40.8017578v92.9365234h-20.8564453V215.3339844H910.699707
		L910.699707,215.3339844z"/>
	<path fill="#4B2464" d="M1297.1547852,344.7470703c11.8144531-12.2119141,17.7226562-28.2451172,17.7226562-48.1064453
		c0-19.8486328-5.9082031-35.8886719-17.7226562-48.0996094c-11.8183594-12.2119141-26.0673828-18.3203125-42.7441406-18.3203125
		c-16.6796875,0-30.8740234,5.8603516-42.5917969,17.5800781c-11.7197266,11.7138672-17.5703125,27.546875-17.5703125,47.4990234
		c0,19.9589844,5.8994141,36.2402344,17.7226562,48.8525391c11.8085938,12.6113281,26.0058594,18.9082031,42.5878906,18.9082031
		C1271.1391602,363.0605469,1285.3364258,356.9580078,1297.1547852,344.7470703L1297.1547852,344.7470703z M1195.1430664,356.8125
		c-14.8984375-16.0878906-22.3398438-36.5917969-22.3398438-61.5126953c0-24.9140625,7.3925781-44.9755859,22.1875-60.1660156
		c14.7929688-15.1835938,33.6074219-22.7851562,56.4414062-22.7851562c14.6933594,0,27.6015625,3.5732422,38.7216797,10.7255859
		c11.1132812,7.1464844,19.3544922,16.3789062,24.7236328,27.7050781v-35.4453125h20.8466797v162.6259766h-20.8466797v-35.7431641
		c-5.3691406,11.3134766-13.6103516,20.6015625-24.7236328,27.8505859
		c-11.1201172,7.2490234-24.0283203,10.8652344-38.7216797,10.8652344
		C1228.7993164,380.9326172,1210.0327148,372.8945312,1195.1430664,356.8125L1195.1430664,356.8125z"/>
	<polygon fill="#4B2464" points="1375.0336914,377.9599609 1375.0336914,157.5458984 1395.887207,157.5458984 
		1395.887207,377.9599609 1375.0336914,377.9599609 	"/>
</g>
</svg>
